<?xml version="1.0" encoding="UTF-8"?>
<svg version="1.1" xmlns="http://www.w3.org/2000/svg" width="500" height="500">
<path d="M0 0 C165 0 330 0 500 0 C500 165 500 330 500 500 C335 500 170 500 0 500 C0 335 0 170 0 0 Z " fill="#FEFEFE" transform="translate(0,0)"/>
<path d="M0 0 C1.18868179 0.00990463 2.37736359 0.01980927 3.60206604 0.03001404 C7.38312315 0.06906867 11.16123283 0.15688541 14.94140625 0.24609375 C17.51102566 0.28121863 20.08069077 0.31315555 22.65039062 0.34179688 C28.93589437 0.41880195 35.21968972 0.53580587 41.50390625 0.68359375 C41.7069337 8.406118 41.8469226 16.12795331 41.94335938 23.85253906 C41.98356355 26.47942827 42.03813715 29.10613878 42.10742188 31.73242188 C42.20459817 35.51086495 42.24986613 39.28694064 42.28515625 43.06640625 C42.32644653 44.2384964 42.36773682 45.41058655 42.41027832 46.61819458 C42.41088257 47.71888275 42.41148682 48.81957092 42.41210938 49.95361328 C42.42987427 50.9173587 42.44763916 51.88110413 42.46594238 52.87405396 C41.50390625 55.68359375 41.50390625 55.68359375 33.50390625 61.68359375 C33.50390625 44.19359375 33.50390625 26.70359375 33.50390625 8.68359375 C18.65390625 8.68359375 3.80390625 8.68359375 -11.49609375 8.68359375 C-11.49609375 23.53359375 -11.49609375 38.38359375 -11.49609375 53.68359375 C-0.38170225 53.40782009 -0.38170225 53.40782009 10.73022461 53.05297852 C19.06646508 52.87830079 24.77750845 53.04051681 31.17016602 59.07006836 C32.50390625 60.68359375 32.50390625 60.68359375 32.50390625 61.68359375 C15.34390625 61.68359375 -1.81609375 61.68359375 -19.49609375 61.68359375 C-19.65703262 54.11946686 -19.79630319 46.56130285 -19.88061523 38.99682617 C-19.91576574 36.42533212 -19.96349644 33.85397745 -20.02416992 31.28295898 C-20.10931808 27.58151844 -20.14883874 23.88193044 -20.1796875 20.1796875 C-20.2158165 19.03463242 -20.2519455 17.88957733 -20.28916931 16.70982361 C-20.29171281 11.51142426 -20.13312236 7.55993448 -16.734375 3.4453125 C-11.74069781 -0.67954933 -6.18977499 -0.19530097 0 0 Z " fill="#020202" transform="translate(130.49609375,218.31640625)"/>
<path d="M0 0 C7.92 0 15.84 0 24 0 C24 2.64 24 5.28 24 8 C18.39 8 12.78 8 7 8 C7 9.98 7 11.96 7 14 C7.87011719 13.94779297 7.87011719 13.94779297 8.7578125 13.89453125 C13.99457524 13.71305927 17.47831088 14.05564429 22 17 C23.35147138 18.31494512 24.68781556 19.64584804 26 21 C26.29769287 20.39937744 26.59538574 19.79875488 26.90209961 19.17993164 C28.24516208 16.47308771 29.59128848 13.76777908 30.9375 11.0625 C31.40607422 10.11697266 31.87464844 9.17144531 32.35742188 8.19726562 C32.80537109 7.29814453 33.25332031 6.39902344 33.71484375 5.47265625 C34.12855225 4.64000244 34.54226074 3.80734863 34.96850586 2.94946289 C36 1 36 1 37 0 C38.51928038 -0.07179964 40.04167482 -0.08392007 41.5625 -0.0625 C42.38878906 -0.05347656 43.21507812 -0.04445312 44.06640625 -0.03515625 C44.70449219 -0.02355469 45.34257812 -0.01195312 46 0 C44.39323547 5.45593671 41.94969106 10.3302147 39.375 15.375 C38.95476562 16.20644531 38.53453125 17.03789062 38.1015625 17.89453125 C37.07135361 19.93153519 36.03617599 21.9660249 35 24 C37.97 24 40.94 24 44 24 C44.33 20.37 44.66 16.74 45 13 C47.31 13 49.62 13 52 13 C52 16.63 52 20.26 52 24 C53.65 24 55.3 24 57 24 C57 26.31 57 28.62 57 31 C55.35 31 53.7 31 52 31 C52 33.31 52 35.62 52 38 C49.36 38 46.72 38 44 38 C44 35.69 44 33.38 44 31 C37.4 31 30.8 31 24 31 C23.01 33.475 23.01 33.475 22 36 C17.31103937 39.31658191 12.5711665 39.90855941 7 39 C3.13640859 36.99665631 0.10653265 34.86197652 -2 31 C-2.1875 28.25 -2.1875 28.25 -2 26 C0.64 26 3.28 26 6 26 C6.66 27.32 7.32 28.64 8 30 C10.33294775 30.04241723 12.66702567 30.04092937 15 30 C16.35618499 28.87465895 16.35618499 28.87465895 16.0625 25.9375 C16.041875 24.968125 16.02125 23.99875 16 23 C12.828262 21.414131 9.36486178 21.62133555 5.875 21.4375 C5.12089844 21.39431641 4.36679688 21.35113281 3.58984375 21.30664062 C1.72678112 21.2005168 -0.13658524 21.09974999 -2 21 C-1.85845864 18.43719792 -1.71191438 15.87484515 -1.5625 13.3125 C-1.52318359 12.59126953 -1.48386719 11.87003906 -1.44335938 11.12695312 C-1.40146484 10.42119141 -1.35957031 9.71542969 -1.31640625 8.98828125 C-1.27974854 8.34415283 -1.24309082 7.70002441 -1.20532227 7.03637695 C-0.96660193 4.6687594 -0.46668225 2.33341123 0 0 Z " fill="#222222" transform="translate(218,230)"/>
<path d="M0 0 C2.23833042 1.43079717 3.67121752 2.77212255 4.86328125 5.15625 C5.19328125 3.17625 5.52328125 1.19625 5.86328125 -0.84375 C16.75328125 -0.84375 27.64328125 -0.84375 38.86328125 -0.84375 C38.86328125 2.12625 38.86328125 5.09625 38.86328125 8.15625 C34.90328125 8.15625 30.94328125 8.15625 26.86328125 8.15625 C26.86328125 17.72625 26.86328125 27.29625 26.86328125 37.15625 C23.89328125 37.15625 20.92328125 37.15625 17.86328125 37.15625 C17.86328125 27.58625 17.86328125 18.01625 17.86328125 8.15625 C13.90328125 8.15625 9.94328125 8.15625 5.86328125 8.15625 C5.86328125 9.14625 5.86328125 10.13625 5.86328125 11.15625 C3.22328125 11.15625 0.58328125 11.15625 -2.13671875 11.15625 C-2.46671875 10.16625 -2.79671875 9.17625 -3.13671875 8.15625 C-6.09336394 6.6779274 -8.87901612 7.09592217 -12.13671875 7.15625 C-12.46671875 8.47625 -12.79671875 9.79625 -13.13671875 11.15625 C-9.69335327 13.36850296 -6.47107001 14.80637046 -2.57421875 16.03125 C0.72534922 17.22016316 2.84468827 18.14146013 5.61328125 20.34375 C7.45002063 24.4764136 7.34685083 27.89098745 5.86328125 32.15625 C3.41260369 35.24877168 0.61258536 36.90648196 -3.13671875 38.15625 C-8.83406564 38.72055864 -13.26457591 38.44211378 -18.13671875 35.15625 C-21.23729983 31.97186943 -22.63102138 29.58110195 -23.13671875 25.15625 C-20.16671875 25.15625 -17.19671875 25.15625 -14.13671875 25.15625 C-13.47671875 26.47625 -12.81671875 27.79625 -12.13671875 29.15625 C-7.53921778 30.34326 -7.53921778 30.34326 -3.13671875 29.15625 C-3.63171875 26.68125 -3.63171875 26.68125 -4.13671875 24.15625 C-4.94496094 23.91390625 -5.75320312 23.6715625 -6.5859375 23.421875 C-17.38830559 20.03391878 -17.38830559 20.03391878 -21.13671875 16.15625 C-22.91238135 12.60492479 -22.8800353 9.01503244 -22.13671875 5.15625 C-17.76209764 -2.46455639 -7.56785575 -2.98840373 0 0 Z " fill="#2B2B2B" transform="translate(208.13671875,283.84375)"/>
<path d="M0 0 C2.05078125 0.03255208 4.1015625 0.06510417 6.15234375 0.09765625 C9.65583544 6.72092387 12.43568729 13.58037909 15.15380859 20.55419922 C15.9096625 22.49141384 16.6732076 24.42547624 17.4375 26.359375 C21.15234375 35.84173897 21.15234375 35.84173897 21.15234375 38.09765625 C18.18234375 38.09765625 15.21234375 38.09765625 12.15234375 38.09765625 C11.49234375 36.11765625 10.83234375 34.13765625 10.15234375 32.09765625 C4.87234375 32.09765625 -0.40765625 32.09765625 -5.84765625 32.09765625 C-6.50765625 34.07765625 -7.16765625 36.05765625 -7.84765625 38.09765625 C-10.81765625 38.09765625 -13.78765625 38.09765625 -16.84765625 38.09765625 C-14.51140978 30.786953 -11.79167961 23.64802209 -8.9765625 16.51074219 C-8.2137301 14.57500557 -7.45629358 12.6372134 -6.69921875 10.69921875 C-5.97992188 8.87003906 -5.97992188 8.87003906 -5.24609375 7.00390625 C-4.59133057 5.33811523 -4.59133057 5.33811523 -3.92333984 3.63867188 C-2.43752617 0.12883331 -2.43752617 0.12883331 0 0 Z " fill="#212121" transform="translate(260.84765625,282.90234375)"/>
<path d="M0 0 C2.97 0 5.94 0 9 0 C9 4.95 9 9.9 9 15 C13.29117824 14.80724025 13.29117824 14.80724025 17 13 C19.25752524 8.84422313 20.67308256 4.52938165 22 0 C24.97 0 27.94 0 31 0 C30.56498853 5.36514147 28.45825904 9.63605537 26.15625 14.4140625 C24.14892097 18.5583635 24.14892097 18.5583635 24.71264648 22.90698242 C25.09493408 23.54998291 25.47722168 24.1929834 25.87109375 24.85546875 C26.28037109 25.55994141 26.68964844 26.26441406 27.11132812 26.99023438 C27.7677832 28.07788086 27.7677832 28.07788086 28.4375 29.1875 C33 36.93629272 33 36.93629272 33 38 C29.7 38 26.4 38 23 38 C22.49210937 37.00097656 21.98421875 36.00195312 21.4609375 34.97265625 C20.76673417 33.66867973 20.07135992 32.36532611 19.375 31.0625 C19.04371094 30.40314453 18.71242188 29.74378906 18.37109375 29.06445312 C17.23786424 26.87521213 17.23786424 26.87521213 15 24 C13.02 23.67 11.04 23.34 9 23 C9 27.95 9 32.9 9 38 C6.03 38 3.06 38 0 38 C0 25.46 0 12.92 0 0 Z " fill="#212121" transform="translate(321,283)"/>
<path d="M0 0 C3.48770247 2.52088556 5.57570083 5.06696826 7.5625 8.875 C7.5625 9.865 7.5625 10.855 7.5625 11.875 C4.70192436 12.12160135 2.3708992 12.30981591 -0.4375 11.875 C-1.406875 11.05 -2.37625 10.225 -3.375 9.375 C-6.9582334 6.44991151 -8.80420743 6.05397207 -13.3125 6.328125 C-15.80155078 6.80618794 -15.80155078 6.80618794 -18.5 9.4375 C-20.74876477 13.42724395 -21.08151096 15.36692329 -20.4375 19.875 C-18.85522398 24.18343924 -18.85522398 24.18343924 -15.4375 26.875 C-12.05392324 27.2942042 -8.81357961 27.38033676 -5.4375 26.875 C-3.75038577 25.2290349 -2.0829378 23.56262851 -0.4375 21.875 C2.60636585 21.43498538 5.50894997 21.57563235 8.5625 21.875 C6.15085008 28.3483761 3.53410714 32.21775756 -2.6875 35.6875 C-8.64133328 37.57288054 -13.8038836 37.87452517 -19.625 35.375 C-24.13160019 32.75593376 -27.3922655 29.72683367 -29.4375 24.875 C-30.5061539 17.82188427 -30.48130045 10.66960926 -26.7109375 4.42578125 C-20.53661922 -3.09325052 -8.31584355 -4.86781086 0 0 Z " fill="#1E1E1E" transform="translate(310.4375,285.125)"/>
<path d="M0 0 C4.10980216 1.49447351 7.05305297 2.99794221 9 7 C9.54545571 12.63637569 9.21173321 16.18240018 6 21 C3.48139996 23.83278123 0.90977362 26.56592186 -2 29 C-2.66 29 -3.32 29 -4 29 C-4 29.66 -4 30.32 -4 31 C0.62 31 5.24 31 10 31 C10 33.31 10 35.62 10 38 C0.76 38 -8.48 38 -18 38 C-18 31 -18 31 -16.77832031 29.18310547 C-15.93672363 28.53172607 -15.93672363 28.53172607 -15.078125 27.8671875 C-14.46453125 27.37089844 -13.8509375 26.87460937 -13.21875 26.36328125 C-12.5690625 25.87214844 -11.919375 25.38101563 -11.25 24.875 C-5.02408454 20.03912198 -5.02408454 20.03912198 0 14 C0.33513594 10.79019864 0.33513594 10.79019864 0 8 C-3.37400578 7.58274322 -3.37400578 7.58274322 -7 8 C-7.474375 8.825 -7.94875 9.65 -8.4375 10.5 C-8.953125 11.325 -9.46875 12.15 -10 13 C-12.78844835 13.47403622 -15.14857943 13.233723 -18 13 C-17.59709958 7.35939411 -15.78085674 4.96528877 -12 1 C-8.30746735 -0.84626633 -4.03862696 -0.34740877 0 0 Z " fill="#1C1C1C" transform="translate(204,230)"/>
<path d="M0 0 C10.23 0 20.46 0 31 0 C31 2.31 31 4.62 31 7 C27.37 7 23.74 7 20 7 C20 16.9 20 26.8 20 37 C17.36 37 14.72 37 12 37 C12 27.1 12 17.2 12 7 C8.04 7 4.08 7 0 7 C0 4.69 0 2.38 0 0 Z " fill="#1A1A1A" transform="translate(215,284)"/>
<path d="M0 0 C1.62215675 0.00333092 1.62215675 0.00333092 3.27708435 0.00672913 C4.49827469 0.00680466 5.71946503 0.00688019 6.97766113 0.00695801 C8.32022644 0.0120654 9.66279134 0.01728141 11.00535583 0.02259827 C12.37156116 0.02446252 13.73776716 0.02588639 15.10397339 0.02688599 C18.70596654 0.03071058 22.30791959 0.04054035 25.90989685 0.05158997 C29.58298703 0.06180536 33.25608368 0.06638388 36.92918396 0.07142639 C44.14079081 0.08216268 51.35236459 0.09923838 58.56394958 0.12025452 C58.56394958 0.45025452 58.56394958 0.78025452 58.56394958 1.12025452 C57.90075714 1.11945892 57.2375647 1.11866333 56.55427551 1.11784363 C49.64312789 1.11540333 42.73310218 1.15462941 35.82225037 1.21791077 C33.24417841 1.23606392 30.66600917 1.24364054 28.08787537 1.2403717 C24.37861462 1.23751293 20.67136871 1.27285063 16.96238708 1.31556702 C15.23706253 1.30192612 15.23706253 1.30192612 13.47688293 1.28800964 C6.7005348 1.36423865 6.7005348 1.36423865 0.83934021 4.39564514 C-2.8709575 9.03186873 -2.28544657 14.86386411 -2.24073792 20.51869202 C-2.25444427 21.70878876 -2.26815063 22.8988855 -2.28227234 24.12504578 C-2.31957732 27.91549971 -2.31585657 31.70464302 -2.31105042 35.49525452 C-2.32917658 38.06949375 -2.349979 40.64371563 -2.37355042 43.21791077 C-2.42540656 49.51882047 -2.44360948 55.81915103 -2.43605042 62.12025452 C-2.76605042 62.12025452 -3.09605042 62.12025452 -3.43605042 62.12025452 C-3.45917806 54.18411665 -3.47696765 46.24799276 -3.48786259 38.31182957 C-3.4930905 34.62710954 -3.50018646 30.94241249 -3.51148987 27.25770569 C-3.52232204 23.70454621 -3.52832795 20.15140889 -3.53092766 16.59823418 C-3.53278131 15.23979785 -3.5364008 13.8813628 -3.54178047 12.52293587 C-3.54899516 10.62643228 -3.54945851 8.72990659 -3.54957581 6.83338928 C-3.55179642 5.75195145 -3.55401703 4.67051361 -3.55630493 3.55630493 C-3.3941803 0.27207248 -3.28423245 0.16212464 0 0 Z " fill="#DBDBDB" transform="translate(113.43605041503906,217.87974548339844)"/>
<path d="M0 0 C0.33 0 0.66 0 1 0 C1.02312764 7.93613787 1.04091723 15.87226176 1.05181217 23.80842495 C1.05704008 27.49314498 1.06413605 31.17784203 1.07543945 34.86254883 C1.08627162 38.41570831 1.09227753 41.96884563 1.09487724 45.52202034 C1.0967309 46.88045666 1.10035038 48.23889171 1.10573006 49.59731865 C1.11294475 51.49382223 1.11340809 53.39034793 1.11352539 55.28686523 C1.115746 56.36830307 1.11796661 57.44974091 1.12025452 58.56394958 C1 61 1 61 0 62 C-1.90243762 62.09391296 -3.80838459 62.11743658 -5.71313477 62.11352539 C-6.9343251 62.11344986 -8.15551544 62.11337433 -9.41371155 62.11329651 C-10.75627686 62.10818911 -12.09884175 62.10297311 -13.44140625 62.09765625 C-14.80761158 62.09579199 -16.17381757 62.09436813 -17.5400238 62.09336853 C-21.14201695 62.08954394 -24.74397 62.07971417 -28.34594727 62.06866455 C-32.01903745 62.05844916 -35.69213409 62.05387064 -39.36523438 62.04882812 C-46.57684123 62.03809184 -53.788415 62.02101614 -61 62 C-61 61.67 -61 61.34 -61 61 C-60.33680756 60.99857498 -59.67361511 60.99714996 -58.99032593 60.99568176 C-52.07923173 60.97597465 -45.16901955 60.92167839 -38.25830078 60.84741211 C-35.68024018 60.82423452 -33.10208492 60.809837 -30.52392578 60.80444336 C-26.81482977 60.79515275 -23.10722218 60.75415488 -19.3984375 60.70703125 C-18.24822113 60.7109639 -17.09800476 60.71489655 -15.91293335 60.71894836 C-9.29619134 60.66266594 -9.29619134 60.66266594 -3.27539062 58.23828125 C0.25208743 53.21805926 -0.14898014 48.4784059 -0.1953125 42.48046875 C-0.18160614 41.26676102 -0.16789978 40.05305328 -0.15377808 38.80256653 C-0.11642282 34.93050253 -0.12019725 31.0597189 -0.125 27.1875 C-0.10687736 24.56052678 -0.08607606 21.93357057 -0.0625 19.30664062 C-0.0105967 12.87096807 0.00755276 6.43586259 0 0 Z " fill="#D0D0D0" transform="translate(172,219)"/>
<path d="M0 0 C0.66 0 1.32 0 2 0 C2.67305018 1.60149886 3.33822227 3.20631029 4 4.8125 C4.37125 5.70582031 4.7425 6.59914063 5.125 7.51953125 C6 10 6 10 6 13 C2.7 13 -0.6 13 -4 13 C-3.52140759 11.39566191 -3.04210442 9.79153584 -2.5625 8.1875 C-2.29566406 7.29417969 -2.02882813 6.40085937 -1.75390625 5.48046875 C-1.19612127 3.64526945 -0.60655425 1.81966274 0 0 Z " fill="#E9E9E9" transform="translate(262,295)"/>
</svg>
